<?xml version="1.0" encoding="UTF-8"?>
<svg version="1.1" xmlns="http://www.w3.org/2000/svg" width="100" height="100">
<path d="M0 0 C33 0 66 0 100 0 C100 33 100 66 100 100 C67 100 34 100 0 100 C0 67 0 34 0 0 Z " fill="#C7C7C7" transform="translate(0,0)"/>
<path d="M0 0 C4.95 0 9.9 0 15 0 C17.83173434 6.1722354 20.27763099 12.34733126 22.453125 18.77734375 C22.75820984 19.66990372 23.06329468 20.56246368 23.37762451 21.48207092 C24.01482289 23.34942469 24.64999437 25.21747125 25.28320312 27.08618164 C26.25621978 29.95584364 27.23702881 32.82275879 28.21875 35.68945312 C28.83900169 37.51026003 29.4588096 39.33121817 30.078125 41.15234375 C30.37180969 42.01061264 30.66549438 42.86888153 30.96807861 43.75315857 C31.23545837 44.54480911 31.50283813 45.33645966 31.77832031 46.15209961 C32.01496399 46.84887314 32.25160767 47.54564667 32.49542236 48.26353455 C33 50 33 50 33 52 C29.04 52 25.08 52 21 52 C18 43.375 18 43.375 18 40 C11.4 40 4.8 40 -2 40 C-2.33 42.31 -2.66 44.62 -3 47 C-3.99 49.475 -3.99 49.475 -5 52 C-8.96 52 -12.92 52 -17 52 C-14.24643456 41.05739237 -10.48856819 30.47062446 -6.8125 19.8125 C-6.15137654 17.88747835 -5.49056656 15.962349 -4.83007812 14.03710938 C-3.22366593 9.35682269 -1.61301041 4.67801657 0 0 Z " fill="#040404" transform="translate(42,25)"/>
<path d="M0 0 C0.66 0 1.32 0 2 0 C2.83857688 2.60258324 3.67103344 5.20685647 4.5 7.8125 C4.73847656 8.55048828 4.97695313 9.28847656 5.22265625 10.04882812 C6.19940136 13.13255196 7 15.74495809 7 19 C3.04 19 -0.92 19 -5 19 C-3.79850665 12.43799785 -2.27223215 6.27136074 0 0 Z " fill="#BDBDBD" transform="translate(49,37)"/>
</svg>
